<svg id="svg" version="1.1" xmlns="http://www.w3.org/2000/svg" xmlns:xlink="http://www.w3.org/1999/xlink" width="400"
     height="400" viewBox="0, 0, 400,400">
    <g id="svgg">
        <path id="path0"
              d="M250.341 69.793 C 250.235 69.898,247.820 70.338,244.974 70.769 C 237.698 71.872,225.507 73.953,224.845 74.205 C 224.540 74.322,222.200 74.588,219.645 74.797 C 217.090 75.005,213.290 75.522,211.200 75.945 C 209.110 76.368,205.841 76.930,203.936 77.194 C 201.124 77.582,200.295 77.860,199.536 78.669 L 198.600 79.665 198.529 102.932 C 198.490 115.730,198.359 126.695,198.239 127.300 C 198.013 128.435,196.284 128.887,195.380 128.047 C 194.678 127.394,188.195 125.302,185.987 125.015 C 184.784 124.859,182.423 124.387,180.741 123.967 C 172.523 121.916,151.519 120.623,141.400 121.545 C 126.680 122.886,122.976 123.285,118.800 123.983 C 116.270 124.405,112.760 124.856,111.000 124.985 C 107.846 125.216,101.083 126.576,96.000 128.002 C 94.570 128.403,92.349 128.943,91.064 129.201 C 86.489 130.122,86.508 129.946,89.248 145.985 C 90.133 151.163,91.033 156.570,91.250 158.000 C 93.924 175.654,93.377 174.770,100.400 172.783 C 105.445 171.356,114.911 169.419,119.600 168.854 C 121.470 168.628,125.250 168.129,128.000 167.744 C 141.209 165.895,158.506 167.037,166.002 170.252 C 176.330 174.683,182.078 183.289,182.987 195.681 C 183.510 202.816,183.482 202.835,174.725 201.396 C 158.411 198.715,129.055 199.581,120.034 203.010 C 119.722 203.129,117.472 203.661,115.034 204.193 C 105.859 206.195,99.860 208.936,89.249 215.973 C 80.729 221.623,73.367 233.205,70.289 245.800 C 67.378 257.713,69.505 282.049,73.995 288.200 C 74.155 288.420,74.584 289.493,74.948 290.586 C 77.453 298.104,92.052 312.333,99.800 314.809 C 100.680 315.090,102.840 315.927,104.600 316.669 C 125.303 325.398,169.543 326.851,205.600 319.987 C 207.910 319.547,211.060 319.012,212.600 318.798 C 214.140 318.585,218.640 317.778,222.600 317.005 C 231.429 315.283,231.390 315.283,234.754 316.977 C 251.742 325.532,285.192 327.307,308.000 320.864 C 326.854 315.538,327.562 315.085,326.183 309.231 C 325.850 307.818,325.393 304.848,325.169 302.631 C 324.944 300.414,324.490 297.430,324.160 296.000 C 323.569 293.441,322.867 289.671,321.215 280.200 C 319.781 271.977,319.576 271.779,314.362 273.570 C 312.393 274.247,310.381 274.803,309.891 274.807 C 309.401 274.811,307.740 275.100,306.200 275.451 C 293.411 278.359,278.365 278.384,269.625 275.513 C 260.919 272.652,255.824 264.124,254.415 250.058 C 253.671 242.631,253.862 173.795,254.629 173.029 C 255.189 172.468,258.620 172.400,286.384 172.400 C 316.433 172.400,317.544 172.374,318.456 171.636 L 319.400 170.871 319.510 149.492 C 319.613 129.512,319.574 128.057,318.910 127.249 L 318.200 126.385 286.668 126.293 C 255.972 126.202,255.120 126.179,254.568 125.424 C 254.091 124.771,254.000 120.371,254.000 97.924 C 254.000 71.733,253.984 71.184,253.200 70.400 C 252.471 69.671,250.814 69.319,250.341 69.793 M170.595 237.017 C 179.651 237.839,181.385 238.201,182.392 239.481 C 183.195 240.501,183.703 275.884,182.955 278.673 C 182.499 280.371,180.635 280.785,171.324 281.253 C 139.586 282.847,127.683 279.034,124.612 266.290 C 122.191 256.241,124.294 248.218,130.542 243.663 C 136.761 239.129,140.001 238.180,154.400 236.674 C 157.863 236.312,164.334 236.449,170.595 237.017 "
              stroke="none" fill="#f8f9f9" fill-rule="evenodd"/>
        <path id="path1"
              d="M0.000 200.000 L 0.000 400.000 200.000 400.000 L 400.000 400.000 400.000 200.000 L 400.000 0.000 200.000 0.000 L 0.000 0.000 0.000 200.000 M253.200 70.400 C 253.984 71.184,254.000 71.733,254.000 97.924 C 254.000 120.371,254.091 124.771,254.568 125.424 C 255.120 126.179,255.972 126.202,286.668 126.293 L 318.200 126.385 318.910 127.249 C 319.574 128.057,319.613 129.512,319.510 149.492 L 319.400 170.871 318.456 171.636 C 317.544 172.374,316.433 172.400,286.384 172.400 C 258.620 172.400,255.189 172.468,254.629 173.029 C 253.862 173.795,253.671 242.631,254.415 250.058 C 256.557 271.449,264.820 278.109,288.400 277.453 C 296.982 277.215,299.870 276.890,306.200 275.451 C 307.740 275.100,309.401 274.811,309.891 274.807 C 310.381 274.803,312.393 274.247,314.362 273.570 C 319.576 271.779,319.781 271.977,321.215 280.200 C 322.867 289.671,323.569 293.441,324.160 296.000 C 324.490 297.430,324.944 300.414,325.169 302.631 C 325.393 304.848,325.850 307.818,326.183 309.231 C 327.562 315.085,326.854 315.538,308.000 320.864 C 285.192 327.307,251.742 325.532,234.754 316.977 C 231.390 315.283,231.429 315.283,222.600 317.005 C 218.640 317.778,214.140 318.585,212.600 318.798 C 211.060 319.012,207.910 319.547,205.600 319.987 C 169.543 326.851,125.303 325.398,104.600 316.669 C 102.840 315.927,100.680 315.090,99.800 314.809 C 92.052 312.333,77.453 298.104,74.948 290.586 C 74.584 289.493,74.155 288.420,73.995 288.200 C 73.834 287.980,73.147 286.270,72.468 284.400 C 66.137 266.974,68.117 242.913,77.028 228.984 C 79.104 225.739,86.670 217.683,89.249 215.973 C 99.860 208.936,105.859 206.195,115.034 204.193 C 117.472 203.661,119.722 203.129,120.034 203.010 C 129.055 199.581,158.411 198.715,174.725 201.396 C 183.482 202.835,183.510 202.816,182.987 195.681 C 182.078 183.289,176.330 174.683,166.002 170.252 C 158.506 167.037,141.209 165.895,128.000 167.744 C 125.250 168.129,121.470 168.628,119.600 168.854 C 114.911 169.419,105.445 171.356,100.400 172.783 C 93.377 174.770,93.924 175.654,91.250 158.000 C 91.033 156.570,90.133 151.163,89.248 145.985 C 86.508 129.946,86.489 130.122,91.064 129.201 C 92.349 128.943,94.570 128.403,96.000 128.002 C 101.083 126.576,107.846 125.216,111.000 124.985 C 112.760 124.856,116.270 124.405,118.800 123.983 C 122.976 123.285,126.680 122.886,141.400 121.545 C 151.519 120.623,172.523 121.916,180.741 123.967 C 182.423 124.387,184.784 124.859,185.987 125.015 C 188.195 125.302,194.678 127.394,195.380 128.047 C 196.284 128.887,198.013 128.435,198.239 127.300 C 198.359 126.695,198.490 115.730,198.529 102.932 L 198.600 79.665 199.536 78.669 C 200.295 77.860,201.124 77.582,203.936 77.194 C 205.841 76.930,209.110 76.368,211.200 75.945 C 213.290 75.522,217.090 75.005,219.645 74.797 C 222.200 74.588,224.540 74.322,224.845 74.205 C 225.507 73.953,237.698 71.872,244.974 70.769 C 247.820 70.338,250.235 69.898,250.341 69.793 C 250.814 69.319,252.471 69.671,253.200 70.400 M154.400 236.674 C 140.001 238.180,136.761 239.129,130.542 243.663 C 124.294 248.218,122.191 256.241,124.612 266.290 C 127.683 279.034,139.586 282.847,171.324 281.253 C 180.635 280.785,182.499 280.371,182.955 278.673 C 183.703 275.884,183.195 240.501,182.392 239.481 C 180.853 237.524,163.200 235.754,154.400 236.674 "
              stroke="none" fill="#046464" fill-rule="evenodd"/>
    </g>
</svg>